<svg xmlns="http://www.w3.org/2000/svg" xmlns:xlink="http://www.w3.org/1999/xlink" width="80" zoomAndPan="magnify" viewBox="0 0 60 60" height="80" preserveAspectRatio="xMidYMid meet" version="1.0"><defs><clipPath id="506ecb11ee"><path d="M 15.519531 39.617188 L 44.542969 39.617188 L 44.542969 53.621094 L 15.519531 53.621094 Z M 15.519531 39.617188 " clip-rule="nonzero"/></clipPath><clipPath id="dda2b58cce"><path d="M 36.273438 37.019531 L 59.890625 37.019531 L 59.890625 49.507812 L 36.273438 49.507812 Z M 36.273438 37.019531 " clip-rule="nonzero"/></clipPath><clipPath id="8e4e6171e5"><path d="M 15 6.375 L 27 6.375 L 27 19 L 15 19 Z M 15 6.375 " clip-rule="nonzero"/></clipPath><clipPath id="f18961302b"><path d="M 33 6.375 L 45 6.375 L 45 19 L 33 19 Z M 33 6.375 " clip-rule="nonzero"/></clipPath></defs><g clip-path="url(#506ecb11ee)"><path fill="#0a2d3f" d="M 25.152344 39.648438 L 25.207031 39.648438 C 25.523438 39.648438 25.804688 39.804688 25.972656 40.046875 C 26.554688 40.765625 27.222656 41.363281 27.945312 41.765625 C 28.59375 42.128906 29.285156 42.335938 30.003906 42.335938 C 30.71875 42.335938 31.414062 42.128906 32.058594 41.765625 C 32.800781 41.351562 33.480469 40.738281 34.074219 40 L 34.070312 39.996094 C 34.257812 39.765625 34.527344 39.648438 34.800781 39.648438 L 34.855469 39.648438 C 37.476562 39.648438 39.859375 40.71875 41.589844 42.445312 C 43.316406 44.175781 44.386719 46.558594 44.386719 49.179688 L 44.386719 52.6875 C 44.386719 53.203125 43.96875 53.621094 43.453125 53.621094 L 16.554688 53.621094 C 16.039062 53.621094 15.621094 53.203125 15.621094 52.6875 L 15.621094 49.179688 C 15.621094 46.558594 16.691406 44.175781 18.417969 42.445312 C 20.144531 40.71875 22.527344 39.648438 25.152344 39.648438 Z M 27.035156 43.394531 C 26.210938 42.929688 25.449219 42.289062 24.78125 41.523438 C 22.820312 41.621094 21.046875 42.460938 19.738281 43.765625 C 18.351562 45.15625 17.488281 47.074219 17.488281 49.179688 L 17.488281 51.753906 L 42.519531 51.753906 L 42.519531 49.179688 C 42.519531 47.074219 41.65625 45.15625 40.265625 43.765625 C 38.960938 42.460938 37.1875 41.621094 35.226562 41.523438 C 34.558594 42.289062 33.796875 42.929688 32.972656 43.394531 C 32.050781 43.910156 31.050781 44.207031 30.003906 44.207031 C 28.953125 44.207031 27.953125 43.910156 27.035156 43.394531 " fill-opacity="1" fill-rule="nonzero"/></g><path fill="#0a2d3f" d="M 30.003906 21.519531 C 32.351562 21.519531 34.484375 22.121094 36.003906 23.429688 C 37.394531 24.628906 38.242188 26.378906 38.242188 28.75 C 38.242188 31.253906 37.273438 34.003906 35.722656 36.054688 C 34.25 38 32.246094 39.34375 30.003906 39.34375 C 27.761719 39.34375 25.753906 38 24.285156 36.054688 C 22.734375 34.003906 21.765625 31.253906 21.765625 28.75 C 21.765625 26.378906 22.613281 24.628906 24.003906 23.429688 C 25.519531 22.121094 27.65625 21.519531 30.003906 21.519531 Z M 34.785156 24.839844 C 33.632812 23.84375 31.925781 23.386719 30.003906 23.386719 C 28.082031 23.386719 26.375 23.84375 25.222656 24.839844 C 24.234375 25.6875 23.632812 26.972656 23.632812 28.75 C 23.632812 30.859375 24.457031 33.191406 25.773438 34.929688 C 26.910156 36.433594 28.402344 37.476562 30.003906 37.476562 C 31.605469 37.476562 33.09375 36.433594 34.234375 34.929688 C 35.550781 33.191406 36.375 30.859375 36.375 28.75 C 36.375 26.972656 35.773438 25.6875 34.785156 24.839844 " fill-opacity="1" fill-rule="nonzero"/><g clip-path="url(#dda2b58cce)"><path fill="#0a2d3f" d="M 36.59375 40.367188 C 36.277344 40.773438 36.34375 41.355469 36.746094 41.675781 C 37.152344 41.992188 37.734375 41.925781 38.054688 41.523438 C 38.660156 40.757812 39.4375 40.128906 40.332031 39.691406 C 41.078125 39.328125 41.902344 39.105469 42.777344 39.054688 C 43.351562 39.703125 44.007812 40.25 44.714844 40.648438 C 45.527344 41.105469 46.410156 41.367188 47.339844 41.367188 C 48.269531 41.367188 49.152344 41.105469 49.96875 40.648438 C 50.675781 40.25 51.328125 39.703125 51.90625 39.054688 C 53.542969 39.148438 55.019531 39.855469 56.113281 40.953125 C 57.292969 42.128906 58.023438 43.75 58.023438 45.535156 L 58.023438 47.628906 L 43.429688 47.628906 C 42.914062 47.628906 42.496094 48.046875 42.496094 48.5625 C 42.496094 49.078125 42.914062 49.496094 43.429688 49.496094 L 58.957031 49.496094 C 59.472656 49.496094 59.890625 49.078125 59.890625 48.5625 L 59.890625 45.535156 C 59.890625 43.234375 58.949219 41.144531 57.4375 39.628906 C 55.921875 38.117188 53.832031 37.175781 51.53125 37.175781 L 51.484375 37.175781 C 51.210938 37.175781 50.941406 37.296875 50.753906 37.527344 L 50.757812 37.527344 C 50.253906 38.152344 49.679688 38.671875 49.054688 39.023438 C 48.515625 39.324219 47.9375 39.5 47.339844 39.5 C 46.746094 39.5 46.167969 39.324219 45.628906 39.023438 C 45.019531 38.683594 44.457031 38.179688 43.964844 37.574219 C 43.796875 37.332031 43.515625 37.175781 43.199219 37.175781 L 43.152344 37.175781 C 41.851562 37.175781 40.617188 37.476562 39.515625 38.011719 C 38.375 38.566406 37.378906 39.378906 36.59375 40.367188 " fill-opacity="1" fill-rule="nonzero"/></g><path fill="#0a2d3f" d="M 47.339844 21.519531 C 49.398438 21.519531 51.269531 22.050781 52.605469 23.199219 C 53.835938 24.257812 54.582031 25.804688 54.582031 27.890625 C 54.582031 30.082031 53.738281 32.484375 52.382812 34.277344 C 51.089844 35.984375 49.324219 37.167969 47.339844 37.167969 C 45.359375 37.167969 43.59375 35.984375 42.300781 34.277344 C 40.945312 32.484375 40.097656 30.082031 40.097656 27.890625 C 40.097656 25.804688 40.847656 24.257812 42.074219 23.199219 C 43.410156 22.050781 45.285156 21.519531 47.339844 21.519531 Z M 51.386719 24.609375 C 50.417969 23.773438 48.972656 23.386719 47.339844 23.386719 C 45.710938 23.386719 44.265625 23.773438 43.292969 24.609375 C 42.46875 25.320312 41.964844 26.398438 41.964844 27.890625 C 41.964844 29.6875 42.667969 31.671875 43.789062 33.152344 C 44.75 34.421875 46.003906 35.300781 47.339844 35.300781 C 48.679688 35.300781 49.933594 34.421875 50.894531 33.152344 C 52.015625 31.671875 52.714844 29.6875 52.714844 27.890625 C 52.714844 26.398438 52.210938 25.320312 51.386719 24.609375 " fill-opacity="1" fill-rule="nonzero"/><path fill="#0a2d3f" d="M 16.578125 49.496094 C 17.09375 49.496094 17.511719 49.078125 17.511719 48.5625 C 17.511719 48.046875 17.09375 47.628906 16.578125 47.628906 L 1.984375 47.628906 L 1.984375 45.535156 C 1.984375 43.75 2.714844 42.128906 3.890625 40.953125 C 4.984375 39.855469 6.464844 39.148438 8.101562 39.054688 C 8.675781 39.703125 9.332031 40.253906 10.039062 40.648438 C 10.851562 41.105469 11.738281 41.367188 12.664062 41.367188 C 13.59375 41.367188 14.476562 41.105469 15.292969 40.648438 C 16 40.25 16.652344 39.703125 17.230469 39.054688 C 18.101562 39.105469 18.929688 39.328125 19.675781 39.691406 C 20.570312 40.128906 21.347656 40.757812 21.953125 41.523438 C 22.269531 41.925781 22.855469 41.992188 23.257812 41.675781 C 23.660156 41.355469 23.730469 40.773438 23.414062 40.371094 C 22.628906 39.378906 21.628906 38.566406 20.492188 38.011719 C 19.390625 37.476562 18.15625 37.175781 16.855469 37.175781 L 16.808594 37.175781 C 16.535156 37.175781 16.265625 37.296875 16.078125 37.527344 L 16.082031 37.527344 C 15.578125 38.152344 15.003906 38.671875 14.378906 39.023438 C 13.839844 39.324219 13.261719 39.5 12.664062 39.5 C 12.070312 39.5 11.492188 39.324219 10.953125 39.023438 C 10.34375 38.683594 9.78125 38.179688 9.289062 37.574219 C 9.117188 37.332031 8.839844 37.175781 8.523438 37.175781 L 8.472656 37.175781 C 6.175781 37.175781 4.085938 38.117188 2.570312 39.628906 C 1.054688 41.144531 0.117188 43.234375 0.117188 45.535156 L 0.117188 48.5625 C 0.117188 49.078125 0.535156 49.496094 1.050781 49.496094 L 16.578125 49.496094 " fill-opacity="1" fill-rule="nonzero"/><path fill="#0a2d3f" d="M 12.664062 21.519531 C 14.722656 21.519531 16.59375 22.050781 17.929688 23.199219 C 19.160156 24.257812 19.910156 25.804688 19.910156 27.890625 C 19.910156 30.082031 19.0625 32.484375 17.707031 34.277344 C 16.414062 35.984375 14.648438 37.167969 12.664062 37.167969 C 10.683594 37.167969 8.917969 35.984375 7.625 34.277344 C 6.269531 32.484375 5.421875 30.082031 5.421875 27.890625 C 5.421875 25.804688 6.171875 24.257812 7.398438 23.199219 C 8.734375 22.050781 10.609375 21.519531 12.664062 21.519531 Z M 16.710938 24.609375 C 15.742188 23.773438 14.296875 23.386719 12.664062 23.386719 C 11.035156 23.386719 9.589844 23.773438 8.617188 24.609375 C 7.792969 25.320312 7.289062 26.398438 7.289062 27.890625 C 7.289062 29.6875 7.992188 31.671875 9.113281 33.152344 C 10.074219 34.421875 11.328125 35.300781 12.664062 35.300781 C 14.003906 35.300781 15.257812 34.421875 16.21875 33.152344 C 17.339844 31.671875 18.039062 29.6875 18.039062 27.890625 C 18.039062 26.398438 17.539062 25.320312 16.710938 24.609375 " fill-opacity="1" fill-rule="nonzero"/><path fill="#0a2d3f" d="M 11.695312 22.023438 C 11.457031 22.480469 11.636719 23.046875 12.09375 23.285156 C 12.550781 23.519531 13.113281 23.34375 13.351562 22.886719 C 13.761719 22.101562 14.375 21.445312 15.125 20.988281 C 15.742188 20.613281 16.457031 20.371094 17.21875 20.3125 C 17.664062 20.796875 18.160156 21.207031 18.695312 21.507812 C 19.355469 21.875 20.070312 22.085938 20.824219 22.085938 C 21.578125 22.085938 22.292969 21.875 22.949219 21.507812 C 23.488281 21.207031 23.984375 20.796875 24.429688 20.3125 C 25.195312 20.371094 25.914062 20.617188 26.539062 21 C 27.289062 21.460938 27.90625 22.121094 28.3125 22.910156 C 28.546875 23.367188 29.109375 23.546875 29.566406 23.3125 C 30.023438 23.078125 30.203125 22.515625 29.96875 22.058594 C 29.40625 20.964844 28.550781 20.046875 27.507812 19.40625 C 26.5 18.789062 25.3125 18.429688 24.050781 18.429688 L 24.015625 18.429688 C 23.742188 18.429688 23.46875 18.550781 23.285156 18.78125 L 23.289062 18.78125 C 22.917969 19.242188 22.496094 19.625 22.039062 19.878906 C 21.65625 20.09375 21.246094 20.21875 20.824219 20.21875 C 20.402344 20.21875 19.992188 20.09375 19.609375 19.878906 C 19.167969 19.632812 18.761719 19.269531 18.398438 18.828125 C 18.230469 18.585938 17.949219 18.429688 17.632812 18.429688 L 17.597656 18.429688 C 16.34375 18.429688 15.164062 18.785156 14.152344 19.398438 C 13.113281 20.03125 12.257812 20.941406 11.695312 22.023438 Z M 22.808594 28.347656 C 23.324219 28.347656 23.742188 27.929688 23.742188 27.414062 C 23.742188 26.898438 23.324219 26.480469 22.808594 26.480469 L 18.957031 26.480469 C 18.441406 26.480469 18.023438 26.898438 18.023438 27.414062 C 18.023438 27.929688 18.441406 28.347656 18.957031 28.347656 L 22.808594 28.347656 " fill-opacity="1" fill-rule="nonzero"/><g clip-path="url(#8e4e6171e5)"><path fill="#0a2d3f" d="M 20.824219 6.375 C 22.457031 6.375 23.949219 6.800781 25.019531 7.722656 C 26.011719 8.578125 26.617188 9.820312 26.617188 11.496094 C 26.617188 13.226562 25.945312 15.125 24.875 16.542969 C 23.84375 17.910156 22.421875 18.851562 20.824219 18.851562 C 19.226562 18.851562 17.804688 17.910156 16.773438 16.542969 C 15.703125 15.125 15.03125 13.226562 15.03125 11.496094 C 15.03125 7.914062 17.625 6.375 20.824219 6.375 Z M 23.800781 9.128906 C 23.09375 8.523438 22.03125 8.242188 20.824219 8.242188 C 18.65625 8.242188 16.898438 9.21875 16.898438 11.496094 C 16.898438 12.835938 17.421875 14.3125 18.261719 15.417969 C 18.960938 16.34375 19.867188 16.984375 20.824219 16.984375 C 21.78125 16.984375 22.6875 16.34375 23.386719 15.417969 C 24.226562 14.3125 24.746094 12.835938 24.746094 11.496094 C 24.746094 10.414062 24.390625 9.636719 23.800781 9.128906 " fill-opacity="1" fill-rule="nonzero"/></g><path fill="#0a2d3f" d="M 41.046875 28.347656 C 41.5625 28.347656 41.980469 27.929688 41.980469 27.414062 C 41.980469 26.898438 41.5625 26.480469 41.046875 26.480469 L 37.199219 26.480469 C 36.683594 26.480469 36.265625 26.898438 36.265625 27.414062 C 36.265625 27.929688 36.683594 28.347656 37.199219 28.347656 Z M 30.039062 22.058594 C 29.800781 22.515625 29.980469 23.078125 30.4375 23.3125 C 30.894531 23.546875 31.457031 23.367188 31.695312 22.910156 C 32.101562 22.121094 32.714844 21.460938 33.46875 21 C 34.089844 20.617188 34.808594 20.371094 35.578125 20.3125 C 36.019531 20.796875 36.515625 21.207031 37.054688 21.507812 C 37.714844 21.875 38.429688 22.085938 39.183594 22.085938 C 39.9375 22.085938 40.652344 21.875 41.308594 21.507812 C 41.847656 21.207031 42.34375 20.796875 42.785156 20.3125 C 43.550781 20.371094 44.261719 20.613281 44.882812 20.988281 C 45.496094 21.363281 46.015625 21.871094 46.410156 22.46875 C 46.417969 22.96875 46.824219 23.375 47.324219 23.382812 C 46.894531 23.34375 46.550781 23.011719 46.488281 22.589844 C 46.464844 22.550781 46.4375 22.511719 46.410156 22.46875 L 46.410156 22.449219 C 46.414062 21.941406 46.824219 21.527344 47.332031 21.523438 C 46.859375 21.5625 46.484375 21.957031 46.476562 22.445312 C 46.476562 22.496094 46.480469 22.542969 46.488281 22.589844 C 46.546875 22.6875 46.601562 22.785156 46.65625 22.886719 L 47.339844 22.527344 L 46.65625 22.886719 C 46.796875 23.160156 47.054688 23.332031 47.335938 23.378906 L 47.335938 23.382812 L 47.324219 23.382812 C 47.347656 23.386719 47.375 23.386719 47.402344 23.386719 C 47.574219 23.402344 47.75 23.367188 47.914062 23.285156 C 48.371094 23.042969 48.550781 22.480469 48.3125 22.023438 C 47.746094 20.941406 46.894531 20.03125 45.851562 19.398438 C 44.84375 18.785156 43.664062 18.429688 42.410156 18.429688 L 42.371094 18.429688 C 42.101562 18.429688 41.828125 18.550781 41.644531 18.78125 C 41.277344 19.242188 40.851562 19.625 40.398438 19.878906 C 40.011719 20.09375 39.601562 20.21875 39.183594 20.21875 C 38.761719 20.21875 38.351562 20.09375 37.96875 19.878906 C 37.527344 19.632812 37.117188 19.269531 36.757812 18.828125 C 36.589844 18.585938 36.308594 18.429688 35.992188 18.429688 L 35.957031 18.429688 C 34.695312 18.429688 33.507812 18.789062 32.496094 19.40625 C 31.453125 20.046875 30.597656 20.964844 30.039062 22.058594 " fill-opacity="1" fill-rule="nonzero"/><g clip-path="url(#f18961302b)"><path fill="#0a2d3f" d="M 39.183594 6.375 C 40.816406 6.375 42.304688 6.800781 43.375 7.722656 C 44.367188 8.578125 44.972656 9.820312 44.972656 11.496094 C 44.972656 13.226562 44.304688 15.125 43.234375 16.542969 C 42.199219 17.910156 40.78125 18.851562 39.183594 18.851562 C 37.582031 18.851562 36.164062 17.910156 35.128906 16.542969 C 34.058594 15.125 33.390625 13.226562 33.390625 11.496094 C 33.390625 7.914062 35.984375 6.375 39.183594 6.375 Z M 42.160156 9.128906 C 41.453125 8.523438 40.390625 8.242188 39.183594 8.242188 C 37.015625 8.242188 35.257812 9.21875 35.257812 11.496094 C 35.257812 12.835938 35.78125 14.3125 36.617188 15.417969 C 37.320312 16.34375 38.226562 16.984375 39.183594 16.984375 C 40.140625 16.984375 41.046875 16.34375 41.746094 15.417969 C 42.582031 14.3125 43.105469 12.835938 43.105469 11.496094 C 43.105469 10.414062 42.746094 9.636719 42.160156 9.128906 " fill-opacity="1" fill-rule="nonzero"/></g></svg>