<svg xmlns="http://www.w3.org/2000/svg" xmlns:xlink="http://www.w3.org/1999/xlink" width="80" zoomAndPan="magnify" viewBox="0 0 60 60" height="80" preserveAspectRatio="xMidYMid meet" version="1.0"><defs><clipPath id="667bd1a15f"><path d="M 4.125 0 L 55.875 0 L 55.875 53 L 4.125 53 Z M 4.125 0 " clip-rule="nonzero"/></clipPath><clipPath id="a4a60ba137"><path d="M 37 36 L 55.875 36 L 55.875 60 L 37 60 Z M 37 36 " clip-rule="nonzero"/></clipPath></defs><g clip-path="url(#667bd1a15f)"><path fill="#0a2d3f" d="M 22.027344 2.269531 C 22.441406 2.246094 22.863281 2.347656 23.285156 2.570312 C 24.179688 3.050781 24.925781 4.171875 25.195312 5.550781 L 21.765625 5.550781 C 20.246094 5.550781 20.246094 7.714844 21.765625 7.714844 L 32.925781 7.714844 C 32.988281 8.164062 33.074219 8.609375 33.210938 9.039062 C 33.972656 11.40625 35.863281 13.152344 38.125 13.152344 C 39.574219 13.152344 39.574219 10.976562 38.125 10.976562 C 36.988281 10.976562 35.816406 10.070312 35.277344 8.382812 C 34.738281 6.691406 35.074219 4.675781 36.015625 3.453125 C 36.960938 2.234375 38.105469 1.972656 39.222656 2.570312 C 40.117188 3.050781 40.863281 4.171875 41.132812 5.550781 L 38.980469 5.550781 C 37.460938 5.550781 37.460938 7.714844 38.980469 7.714844 L 47.277344 7.714844 C 48.347656 7.714844 49.167969 7.984375 49.710938 8.414062 C 50.261719 8.851562 50.609375 9.453125 50.695312 10.453125 L 51.171875 16.09375 L 9.144531 16.09375 L 9.621094 10.453125 C 9.707031 9.453125 10.054688 8.851562 10.601562 8.414062 C 11.148438 7.984375 11.96875 7.714844 13.03125 7.714844 L 16.984375 7.714844 C 17.050781 8.164062 17.140625 8.609375 17.277344 9.039062 C 18.035156 11.40625 19.925781 13.152344 22.1875 13.152344 C 23.636719 13.152344 23.636719 10.976562 22.1875 10.976562 C 21.054688 10.976562 19.878906 10.070312 19.34375 8.382812 C 18.800781 6.691406 19.136719 4.675781 20.078125 3.453125 C 20.667969 2.695312 21.335938 2.304688 22.027344 2.269531 Z M 21.925781 0.152344 C 21.65625 0.167969 21.386719 0.214844 21.128906 0.277344 C 20.070312 0.546875 19.089844 1.1875 18.359375 2.132812 C 17.601562 3.113281 17.140625 4.300781 16.972656 5.550781 L 13.03125 5.550781 C 11.613281 5.550781 10.285156 5.90625 9.257812 6.71875 C 8.238281 7.527344 7.589844 8.785156 7.460938 10.269531 L 4.332031 47.117188 C 4.207031 48.601562 4.589844 50.015625 5.445312 51.078125 C 6.304688 52.136719 7.652344 52.792969 9.191406 52.792969 L 33.949219 52.792969 C 35.472656 52.871094 35.472656 50.550781 33.949219 50.628906 L 9.191406 50.628906 C 8.242188 50.628906 7.59375 50.277344 7.136719 49.707031 C 6.675781 49.140625 6.414062 48.304688 6.5 47.304688 L 8.960938 18.257812 L 51.355469 18.257812 L 53.164062 39.589844 C 53.230469 41.09375 55.507812 40.902344 55.324219 39.410156 L 52.855469 10.269531 C 52.726562 8.789062 52.082031 7.527344 51.058594 6.71875 C 50.035156 5.90625 48.707031 5.550781 47.28125 5.550781 L 43.332031 5.550781 C 43.054688 3.445312 41.972656 1.585938 40.246094 0.660156 C 39.238281 0.121094 38.113281 0.015625 37.066406 0.28125 C 36.015625 0.546875 35.027344 1.1875 34.296875 2.132812 C 33.539062 3.113281 33.078125 4.300781 32.910156 5.550781 L 27.394531 5.550781 C 27.117188 3.445312 26.035156 1.585938 24.308594 0.660156 C 23.550781 0.253906 22.730469 0.0898438 21.925781 0.152344 Z M 21.925781 0.152344 " fill-opacity="1" fill-rule="evenodd"/></g><g clip-path="url(#a4a60ba137)"><path fill="#0a2d3f" d="M 40.417969 38.511719 C 40.734375 38.363281 41.246094 38.359375 41.839844 38.75 L 52.550781 45.816406 C 53.507812 46.445312 53.515625 47.167969 52.640625 47.46875 L 49.21875 48.660156 C 48.59375 48.878906 48.308594 49.605469 48.621094 50.195312 L 51.207031 55.128906 C 51.492188 55.671875 51.3125 56.136719 51.054688 56.277344 L 49.144531 57.320312 C 48.886719 57.460938 48.453125 57.355469 48.171875 56.820312 L 45.574219 51.882812 C 45.269531 51.292969 44.507812 51.117188 43.96875 51.515625 L 41.234375 53.53125 C 40.183594 54.308594 39.8125 53.601562 39.816406 52.75 L 39.828125 39.789062 C 39.828125 38.960938 40.101562 38.667969 40.417969 38.511719 Z M 39.484375 36.558594 C 38.378906 37.089844 37.664062 38.332031 37.660156 39.789062 L 37.648438 52.738281 C 37.648438 53.984375 38.105469 55.070312 38.949219 55.695312 C 39.796875 56.328125 41.082031 56.34375 41.992188 55.667969 L 44.242188 54 L 46.253906 57.828125 C 47 59.25 48.742188 60 50.179688 59.21875 L 52.101562 58.175781 C 53.527344 57.394531 53.878906 55.550781 53.132812 54.125 L 51.117188 50.296875 L 54.199219 49.222656 C 55.261719 48.851562 55.730469 47.664062 55.582031 46.671875 C 55.429688 45.675781 54.800781 44.703125 53.742188 44.007812 L 43.039062 36.941406 C 41.925781 36.207031 40.585938 36.027344 39.484375 36.558594 Z M 39.484375 36.558594 " fill-opacity="1" fill-rule="nonzero"/></g><path fill="#0a2d3f" d="M 15.886719 26.664062 L 20.292969 26.664062 C 20.597656 26.664062 20.8125 26.882812 20.8125 27.1875 L 20.8125 30.519531 C 20.8125 30.824219 20.597656 31.042969 20.292969 31.042969 L 15.886719 31.042969 C 15.585938 31.042969 15.367188 30.824219 15.367188 30.519531 L 15.367188 27.1875 C 15.367188 26.882812 15.585938 26.664062 15.886719 26.664062 Z M 15.886719 24.808594 C 14.585938 24.808594 13.511719 25.886719 13.511719 27.1875 L 13.511719 30.519531 C 13.511719 31.824219 14.585938 32.90625 15.886719 32.90625 L 20.292969 32.90625 C 21.59375 32.90625 22.671875 31.824219 22.671875 30.519531 L 22.671875 27.1875 C 22.671875 25.886719 21.589844 24.808594 20.292969 24.808594 Z M 15.886719 24.808594 " fill-opacity="1" fill-rule="evenodd"/><path fill="#0a2d3f" d="M 27.957031 26.664062 L 32.363281 26.664062 C 32.664062 26.664062 32.878906 26.882812 32.878906 27.1875 L 32.878906 30.519531 C 32.878906 30.824219 32.667969 31.042969 32.363281 31.042969 L 27.957031 31.042969 C 27.652344 31.042969 27.4375 30.824219 27.4375 30.519531 L 27.4375 27.1875 C 27.4375 26.882812 27.652344 26.664062 27.957031 26.664062 Z M 27.957031 24.808594 C 26.65625 24.808594 25.578125 25.886719 25.578125 27.1875 L 25.578125 30.519531 C 25.578125 31.824219 26.65625 32.90625 27.957031 32.90625 L 32.363281 32.90625 C 33.660156 32.90625 34.742188 31.824219 34.742188 30.519531 L 34.742188 27.1875 C 34.742188 25.886719 33.660156 24.808594 32.363281 24.808594 Z M 27.957031 24.808594 " fill-opacity="1" fill-rule="evenodd"/><path fill="#0a2d3f" d="M 40.027344 26.664062 L 44.425781 26.664062 C 44.734375 26.664062 44.949219 26.882812 44.949219 27.1875 L 44.949219 30.519531 C 44.949219 30.824219 44.734375 31.042969 44.425781 31.042969 L 40.027344 31.042969 C 39.71875 31.042969 39.503906 30.824219 39.503906 30.519531 L 39.503906 27.1875 C 39.503906 26.882812 39.71875 26.664062 40.027344 26.664062 Z M 40.027344 24.808594 C 38.722656 24.808594 37.648438 25.886719 37.648438 27.1875 L 37.648438 30.519531 C 37.648438 31.824219 38.722656 32.90625 40.027344 32.90625 L 44.425781 32.90625 C 45.730469 32.90625 46.804688 31.824219 46.804688 30.519531 L 46.804688 27.1875 C 46.804688 25.886719 45.730469 24.808594 44.425781 24.808594 Z M 40.027344 24.808594 " fill-opacity="1" fill-rule="evenodd"/><path fill="#0a2d3f" d="M 27.957031 38.113281 L 32.363281 38.113281 C 32.664062 38.113281 32.878906 38.328125 32.878906 38.632812 L 32.878906 41.964844 C 32.878906 42.269531 32.667969 42.488281 32.363281 42.488281 L 27.957031 42.488281 C 27.652344 42.488281 27.4375 42.269531 27.4375 41.964844 L 27.4375 38.632812 C 27.4375 38.328125 27.652344 38.113281 27.957031 38.113281 Z M 27.957031 36.253906 C 26.65625 36.253906 25.578125 37.332031 25.578125 38.632812 L 25.578125 41.964844 C 25.578125 43.269531 26.65625 44.347656 27.957031 44.347656 L 32.363281 44.347656 C 33.660156 44.347656 34.742188 43.269531 34.742188 41.964844 L 34.742188 38.632812 C 34.742188 37.332031 33.660156 36.253906 32.363281 36.253906 Z M 27.957031 36.253906 " fill-opacity="1" fill-rule="evenodd"/><path fill="#0a2d3f" d="M 15.886719 38.113281 L 20.292969 38.113281 C 20.597656 38.113281 20.816406 38.328125 20.816406 38.632812 L 20.816406 41.964844 C 20.816406 42.269531 20.597656 42.488281 20.292969 42.488281 L 15.886719 42.488281 C 15.585938 42.488281 15.367188 42.269531 15.367188 41.964844 L 15.367188 38.632812 C 15.367188 38.328125 15.585938 38.113281 15.886719 38.113281 Z M 15.886719 36.253906 C 14.585938 36.253906 13.511719 37.332031 13.511719 38.632812 L 13.511719 41.964844 C 13.511719 43.269531 14.585938 44.347656 15.886719 44.347656 L 20.292969 44.347656 C 21.597656 44.347656 22.671875 43.269531 22.671875 41.964844 L 22.671875 38.632812 C 22.671875 37.332031 21.597656 36.253906 20.292969 36.253906 Z M 15.886719 36.253906 " fill-opacity="1" fill-rule="evenodd"/></svg>