<svg xmlns="http://www.w3.org/2000/svg" xmlns:xlink="http://www.w3.org/1999/xlink" width="80" zoomAndPan="magnify" viewBox="0 0 60 60" height="80" preserveAspectRatio="xMidYMid meet" version="1.0"><defs><clipPath id="7fe7f22389"><path d="M 6.351562 0 L 53.601562 0 L 53.601562 60 L 6.351562 60 Z M 6.351562 0 " clip-rule="nonzero"/></clipPath></defs><g clip-path="url(#7fe7f22389)"><path fill="#0a2d3f" d="M 47.320312 39.675781 C 51.226562 35.457031 53.621094 29.816406 53.621094 23.628906 C 53.621094 10.601562 43.019531 0 29.992188 0 C 16.964844 0 6.363281 10.601562 6.363281 23.628906 C 6.363281 30.296875 9.140625 36.324219 13.59375 40.625 L 7.773438 53.132812 C 7.621094 53.460938 7.660156 53.84375 7.882812 54.128906 C 8.101562 54.414062 8.460938 54.558594 8.816406 54.496094 L 15.960938 53.246094 L 19.605469 59.519531 C 19.78125 59.816406 20.101562 60 20.445312 60 C 20.457031 60 20.472656 60 20.488281 60 C 20.847656 59.984375 21.167969 59.765625 21.320312 59.441406 L 27.078125 47.078125 C 28.03125 47.195312 29.003906 47.257812 29.992188 47.257812 C 31.410156 47.257812 32.800781 47.132812 34.152344 46.890625 L 38.5 56.976562 C 38.640625 57.308594 38.957031 57.53125 39.316406 57.558594 C 39.339844 57.5625 39.363281 57.5625 39.386719 57.5625 C 39.71875 57.5625 40.03125 57.390625 40.210938 57.105469 L 44.035156 50.941406 L 51.140625 52.394531 C 51.496094 52.46875 51.859375 52.335938 52.085938 52.058594 C 52.3125 51.777344 52.367188 51.394531 52.226562 51.0625 Z M 20.347656 56.941406 L 17.296875 51.691406 C 17.09375 51.339844 16.691406 51.152344 16.292969 51.222656 L 10.308594 52.269531 L 15.105469 41.964844 C 17.960938 44.285156 21.367188 45.957031 25.097656 46.746094 Z M 8.300781 23.628906 C 8.300781 11.667969 18.03125 1.933594 29.992188 1.933594 C 41.953125 1.933594 51.683594 11.667969 51.683594 23.628906 C 51.683594 35.589844 41.953125 45.320312 29.992188 45.320312 C 18.03125 45.320312 8.300781 35.589844 8.300781 23.628906 Z M 43.761719 48.910156 C 43.363281 48.828125 42.960938 49 42.746094 49.347656 L 39.542969 54.507812 L 36.078125 46.460938 C 39.761719 45.480469 43.09375 43.625 45.84375 41.136719 L 49.714844 50.128906 Z M 46.257812 30.289062 C 46.210938 29.902344 46.167969 29.554688 46.128906 29.246094 C 45.96875 27.988281 45.890625 27.359375 45.980469 26.859375 C 46.066406 26.359375 46.359375 25.792969 46.9375 24.667969 C 47.078125 24.390625 47.238281 24.082031 47.414062 23.734375 C 48.328125 21.917969 47.949219 19.765625 46.46875 18.371094 C 46.183594 18.105469 45.929688 17.867188 45.699219 17.65625 C 44.769531 16.796875 44.304688 16.363281 44.050781 15.925781 C 43.796875 15.484375 43.65625 14.863281 43.375 13.628906 C 43.304688 13.324219 43.226562 12.988281 43.140625 12.605469 C 42.675781 10.628906 41 9.222656 38.96875 9.109375 C 38.578125 9.085938 38.234375 9.070312 37.921875 9.054688 C 36.65625 8.992188 36.019531 8.960938 35.542969 8.785156 C 35.066406 8.613281 34.5625 8.230469 33.550781 7.464844 C 33.304688 7.273438 33.027344 7.066406 32.714844 6.832031 C 31.085938 5.613281 28.898438 5.613281 27.269531 6.832031 C 26.957031 7.066406 26.679688 7.273438 26.433594 7.464844 C 25.421875 8.230469 24.917969 8.613281 24.441406 8.785156 C 23.964844 8.960938 23.328125 8.992188 22.0625 9.054688 C 21.75 9.070312 21.40625 9.085938 21.015625 9.109375 C 18.984375 9.222656 17.308594 10.628906 16.847656 12.605469 C 16.757812 12.988281 16.679688 13.324219 16.609375 13.628906 C 16.328125 14.863281 16.1875 15.484375 15.933594 15.925781 C 15.679688 16.363281 15.214844 16.796875 14.285156 17.65625 C 14.054688 17.867188 13.800781 18.105469 13.515625 18.371094 C 12.035156 19.765625 11.65625 21.917969 12.570312 23.734375 C 12.75 24.082031 12.90625 24.390625 13.046875 24.667969 C 13.628906 25.792969 13.917969 26.359375 14.003906 26.859375 C 14.09375 27.359375 14.015625 27.988281 13.855469 29.246094 C 13.816406 29.554688 13.773438 29.902344 13.726562 30.289062 C 13.488281 32.308594 14.582031 34.203125 16.449219 35.003906 C 16.808594 35.15625 17.128906 35.289062 17.414062 35.410156 C 18.582031 35.902344 19.167969 36.152344 19.558594 36.476562 C 19.945312 36.800781 20.289062 37.335938 20.976562 38.402344 C 21.148438 38.664062 21.335938 38.953125 21.550781 39.28125 C 22.410156 40.59375 23.832031 41.339844 25.332031 41.339844 C 25.773438 41.339844 26.222656 41.277344 26.664062 41.140625 C 27.039062 41.03125 27.367188 40.925781 27.667969 40.835938 C 28.878906 40.460938 29.484375 40.273438 29.992188 40.273438 C 30.5 40.273438 31.105469 40.460938 32.316406 40.835938 C 32.617188 40.925781 32.949219 41.03125 33.320312 41.140625 C 35.265625 41.730469 37.324219 40.984375 38.433594 39.28125 C 38.648438 38.953125 38.835938 38.664062 39.007812 38.402344 C 39.695312 37.335938 40.039062 36.800781 40.425781 36.476562 C 40.816406 36.152344 41.402344 35.902344 42.570312 35.410156 C 42.855469 35.289062 43.175781 35.15625 43.535156 35 C 45.402344 34.203125 46.496094 32.308594 46.257812 30.289062 Z M 45.214844 23.785156 C 43.882812 26.378906 43.84375 26.59375 44.207031 29.488281 C 44.246094 29.792969 44.289062 30.132812 44.335938 30.519531 C 44.476562 31.695312 43.863281 32.757812 42.773438 33.222656 C 42.417969 33.375 42.101562 33.507812 41.816406 33.628906 C 39.128906 34.761719 38.964844 34.898438 37.378906 37.351562 C 37.214844 37.609375 37.027344 37.898438 36.816406 38.222656 C 36.167969 39.214844 35.015625 39.632812 33.878906 39.289062 C 33.511719 39.179688 33.183594 39.078125 32.886719 38.984375 C 30.101562 38.125 29.882812 38.125 27.097656 38.984375 C 26.800781 39.078125 26.472656 39.179688 26.105469 39.289062 C 24.96875 39.632812 23.816406 39.214844 23.167969 38.222656 C 22.957031 37.898438 22.769531 37.609375 22.605469 37.351562 C 21.023438 34.898438 20.855469 34.761719 18.167969 33.628906 C 17.882812 33.507812 17.566406 33.375 17.210938 33.222656 C 16.121094 32.757812 15.507812 31.695312 15.648438 30.519531 C 15.695312 30.132812 15.738281 29.792969 15.777344 29.488281 C 16.140625 26.59375 16.101562 26.378906 14.769531 23.785156 C 14.628906 23.507812 14.472656 23.203125 14.300781 22.859375 C 13.765625 21.800781 13.976562 20.59375 14.84375 19.785156 C 15.125 19.519531 15.375 19.285156 15.601562 19.074219 C 17.738281 17.089844 17.847656 16.902344 18.496094 14.058594 C 18.566406 13.757812 18.640625 13.425781 18.730469 13.046875 C 19 11.894531 19.941406 11.105469 21.121094 11.039062 C 21.507812 11.019531 21.851562 11.003906 22.160156 10.988281 C 25.074219 10.84375 25.277344 10.769531 27.601562 9.007812 C 27.847656 8.820312 28.121094 8.613281 28.429688 8.382812 C 28.90625 8.027344 29.449219 7.847656 29.992188 7.847656 C 30.535156 7.847656 31.078125 8.027344 31.554688 8.382812 C 31.863281 8.613281 32.136719 8.820312 32.382812 9.007812 C 34.707031 10.769531 34.910156 10.84375 37.824219 10.988281 C 38.132812 11.003906 38.476562 11.019531 38.863281 11.039062 C 40.046875 11.105469 40.984375 11.894531 41.253906 13.046875 C 41.34375 13.425781 41.417969 13.757812 41.488281 14.058594 C 42.136719 16.902344 42.246094 17.089844 44.382812 19.074219 C 44.609375 19.285156 44.863281 19.519531 45.144531 19.785156 C 46.007812 20.59375 46.21875 21.800781 45.683594 22.859375 C 45.511719 23.203125 45.355469 23.507812 45.214844 23.785156 Z M 38.292969 20.402344 L 33.121094 20.148438 L 31.28125 15.304688 C 31.074219 14.765625 30.570312 14.417969 29.992188 14.417969 C 29.414062 14.417969 28.910156 14.765625 28.703125 15.304688 L 26.867188 20.148438 L 21.691406 20.402344 C 21.113281 20.429688 20.625 20.804688 20.445312 21.351562 C 20.269531 21.902344 20.445312 22.488281 20.894531 22.851562 L 24.933594 26.097656 L 23.574219 31.097656 C 23.421875 31.65625 23.625 32.234375 24.09375 32.574219 C 24.335938 32.75 24.617188 32.839844 24.902344 32.839844 C 25.164062 32.839844 25.425781 32.761719 25.65625 32.613281 L 29.992188 29.773438 L 34.328125 32.613281 C 34.8125 32.929688 35.425781 32.914062 35.890625 32.574219 C 36.359375 32.234375 36.5625 31.65625 36.410156 31.097656 L 35.050781 26.097656 L 39.089844 22.851562 C 39.542969 22.492188 39.714844 21.902344 39.539062 21.351562 C 39.359375 20.804688 38.871094 20.429688 38.292969 20.402344 Z M 29.472656 15.992188 Z M 33.554688 24.816406 C 33.128906 25.160156 32.945312 25.726562 33.089844 26.253906 L 34.160156 30.1875 L 30.746094 27.957031 C 30.289062 27.65625 29.695312 27.65625 29.238281 27.953125 L 25.824219 30.1875 L 26.894531 26.253906 C 27.039062 25.722656 26.855469 25.160156 26.429688 24.816406 L 23.25 22.261719 L 27.324219 22.066406 C 27.871094 22.039062 28.351562 21.691406 28.546875 21.179688 L 29.992188 17.367188 L 31.441406 21.179688 C 31.632812 21.691406 32.113281 22.039062 32.660156 22.066406 L 36.734375 22.265625 Z M 33.554688 24.816406 " fill-opacity="1" fill-rule="nonzero"/></g></svg>