<svg xmlns="http://www.w3.org/2000/svg" xmlns:xlink="http://www.w3.org/1999/xlink" width="80" zoomAndPan="magnify" viewBox="0 0 60 60" height="80" preserveAspectRatio="xMidYMid meet" version="1.0"><defs><clipPath id="5241dad2fb"><path d="M 3 34 L 57 34 L 57 56.761719 L 3 56.761719 Z M 3 34 " clip-rule="nonzero"/></clipPath><clipPath id="57edad93a2"><path d="M 8 3.511719 L 52 3.511719 L 52 19 L 8 19 Z M 8 3.511719 " clip-rule="nonzero"/></clipPath></defs><path fill="#0a2d3f" d="M 13.597656 38.945312 C 12.757812 38.664062 11.914062 38.382812 11.074219 38.058594 C 14.253906 45.394531 21.542969 50.535156 30 50.535156 C 38.457031 50.535156 45.746094 45.394531 48.925781 38.058594 C 48.085938 38.382812 47.289062 38.664062 46.402344 38.945312 C 43.222656 44.738281 37.054688 48.664062 30 48.664062 C 22.945312 48.664062 16.777344 44.738281 13.597656 38.945312 Z M 13.597656 38.945312 " fill-opacity="1" fill-rule="nonzero"/><path fill="#0a2d3f" d="M 46.121094 20.535156 C 46.683594 20.253906 47.242188 19.972656 47.804688 19.691406 C 44.253906 13.570312 37.617188 9.414062 30 9.414062 C 22.382812 9.414062 15.746094 13.570312 12.195312 19.691406 C 12.757812 19.972656 13.316406 20.253906 13.878906 20.535156 C 17.101562 15.019531 23.128906 11.28125 30 11.28125 C 36.871094 11.28125 42.898438 15.019531 46.121094 20.535156 Z M 46.121094 20.535156 " fill-opacity="1" fill-rule="nonzero"/><g clip-path="url(#5241dad2fb)"><path fill="#0a2d3f" d="M 9.90625 41.5625 C 9.390625 40.675781 8.597656 39.925781 7.851562 39.179688 C 6.914062 38.292969 6.027344 37.449219 5.792969 36.421875 C 5.699219 36.140625 5.699219 35.816406 5.699219 35.488281 C 5.09375 35.160156 4.53125 34.785156 3.972656 34.414062 C 3.832031 35.253906 3.785156 36.09375 3.972656 36.9375 C 4.390625 38.429688 5.46875 39.507812 6.542969 40.535156 C 7.242188 41.1875 7.898438 41.84375 8.269531 42.496094 C 8.691406 43.199219 8.878906 44.085938 9.113281 45.019531 C 9.484375 46.46875 9.859375 47.917969 10.933594 48.992188 C 12.007812 50.066406 13.503906 50.441406 14.90625 50.816406 C 15.839844 51.046875 16.730469 51.28125 17.429688 51.65625 C 18.085938 52.03125 18.738281 52.683594 19.390625 53.382812 C 20.421875 54.460938 21.496094 55.582031 22.992188 55.953125 C 23.410156 56.046875 23.785156 56.09375 24.207031 56.09375 C 25.234375 56.09375 26.261719 55.816406 27.289062 55.535156 C 28.222656 55.253906 29.160156 55.019531 29.953125 55.019531 C 30.746094 55.019531 31.683594 55.253906 32.617188 55.535156 C 34.019531 55.90625 35.46875 56.328125 36.914062 55.953125 C 38.410156 55.535156 39.484375 54.460938 40.515625 53.382812 C 41.167969 52.683594 41.824219 52.03125 42.476562 51.65625 C 43.175781 51.234375 44.066406 51.046875 45 50.816406 C 46.449219 50.441406 47.898438 50.066406 48.972656 48.992188 C 50.046875 47.917969 50.421875 46.421875 50.792969 45.019531 C 51.027344 44.085938 51.261719 43.199219 51.636719 42.496094 C 52.007812 41.84375 52.664062 41.1875 53.363281 40.535156 C 54.4375 39.507812 55.5625 38.429688 55.933594 36.9375 C 56.167969 36.09375 56.121094 35.253906 55.933594 34.414062 C 55.375 34.785156 54.765625 35.160156 54.207031 35.488281 C 54.207031 35.816406 54.207031 36.140625 54.113281 36.421875 C 53.832031 37.402344 52.992188 38.246094 52.054688 39.179688 C 51.308594 39.878906 50.515625 40.628906 50 41.5625 C 49.484375 42.496094 49.207031 43.523438 48.925781 44.554688 C 48.597656 45.816406 48.316406 46.984375 47.617188 47.683594 C 46.914062 48.382812 45.746094 48.710938 44.484375 48.992188 C 43.457031 49.273438 42.429688 49.507812 41.496094 50.066406 C 40.609375 50.582031 39.859375 51.375 39.113281 52.125 C 38.222656 53.058594 37.382812 53.945312 36.355469 54.179688 C 35.421875 54.414062 34.253906 54.085938 33.039062 53.757812 C 32.007812 53.476562 30.933594 53.152344 29.859375 53.152344 C 28.785156 53.152344 27.710938 53.429688 26.683594 53.757812 C 25.46875 54.085938 24.300781 54.414062 23.363281 54.179688 C 22.382812 53.898438 21.542969 53.058594 20.609375 52.125 C 19.90625 51.375 19.160156 50.582031 18.222656 50.066406 C 17.289062 49.554688 16.261719 49.273438 15.234375 48.992188 C 13.972656 48.664062 12.804688 48.382812 12.101562 47.683594 C 11.402344 46.984375 11.074219 45.816406 10.792969 44.554688 C 10.699219 43.523438 10.421875 42.496094 9.90625 41.5625 Z M 9.90625 41.5625 " fill-opacity="1" fill-rule="nonzero"/></g><g clip-path="url(#57edad93a2)"><path fill="#0a2d3f" d="M 10.980469 15.394531 C 11.308594 14.132812 11.589844 12.964844 12.289062 12.261719 C 12.992188 11.5625 14.160156 11.234375 15.421875 10.953125 C 16.449219 10.675781 17.476562 10.441406 18.410156 9.878906 C 19.300781 9.367188 20.046875 8.570312 20.792969 7.824219 C 21.683594 6.890625 22.523438 6 23.550781 5.769531 C 24.484375 5.535156 25.652344 5.863281 26.871094 6.1875 C 27.898438 6.46875 28.972656 6.796875 30.046875 6.796875 C 31.121094 6.796875 32.195312 6.515625 33.222656 6.1875 C 34.4375 5.863281 35.609375 5.535156 36.542969 5.769531 C 37.523438 6.046875 38.363281 6.890625 39.300781 7.824219 C 40 8.570312 40.746094 9.367188 41.683594 9.878906 C 42.617188 10.394531 43.644531 10.675781 44.671875 10.953125 C 45.933594 11.28125 47.101562 11.5625 47.804688 12.261719 C 48.503906 12.964844 48.832031 14.132812 49.113281 15.394531 C 49.390625 16.421875 49.625 17.449219 50.1875 18.382812 C 50.699219 18.058594 51.214844 17.683594 51.730469 17.355469 C 51.355469 16.703125 51.167969 15.863281 50.933594 14.972656 C 50.5625 13.523438 50.1875 12.078125 49.113281 11 C 48.039062 9.925781 46.542969 9.554688 45.140625 9.179688 C 44.207031 8.945312 43.316406 8.710938 42.617188 8.339844 C 41.960938 7.964844 41.308594 7.308594 40.652344 6.609375 C 39.625 5.535156 38.550781 4.414062 37.054688 4.039062 C 35.609375 3.664062 34.160156 4.085938 32.757812 4.460938 C 31.824219 4.738281 30.886719 4.972656 30.09375 4.972656 C 29.300781 4.972656 28.363281 4.738281 27.429688 4.460938 C 26.027344 4.085938 24.578125 3.664062 23.128906 4.039062 C 21.636719 4.460938 20.5625 5.535156 19.53125 6.609375 C 18.878906 7.308594 18.222656 7.964844 17.570312 8.339844 C 16.871094 8.757812 15.980469 8.945312 15.046875 9.179688 C 13.597656 9.554688 12.148438 9.925781 11.074219 11 C 10 12.078125 9.625 13.570312 9.253906 14.972656 C 9.019531 15.863281 8.832031 16.703125 8.457031 17.355469 C 8.972656 17.730469 9.484375 18.058594 10 18.382812 C 10.421875 17.449219 10.699219 16.375 10.980469 15.394531 Z M 10.980469 15.394531 " fill-opacity="1" fill-rule="nonzero"/></g><path fill="#0a2d3f" d="M 30.886719 16.375 L 29.765625 14.507812 L 28.972656 16.421875 L 26.871094 16.796875 L 28.503906 18.246094 L 28.316406 20.347656 L 30.1875 19.273438 L 32.148438 20.207031 L 31.636719 18.152344 L 33.039062 16.609375 Z M 30.886719 16.375 " fill-opacity="1" fill-rule="nonzero"/><path fill="#0a2d3f" d="M 23.039062 18.757812 L 22.289062 17.496094 L 21.730469 18.804688 L 20.328125 19.039062 L 21.449219 20.019531 L 21.308594 21.421875 L 22.570312 20.722656 L 23.925781 21.328125 L 23.550781 19.925781 L 24.484375 18.898438 Z M 23.039062 18.757812 " fill-opacity="1" fill-rule="nonzero"/><path fill="#0a2d3f" d="M 38.222656 18.757812 L 37.476562 17.496094 L 36.914062 18.804688 L 35.515625 19.039062 L 36.636719 20.019531 L 36.496094 21.421875 L 37.757812 20.722656 L 39.113281 21.328125 L 38.738281 19.925781 L 39.671875 18.898438 Z M 38.222656 18.757812 " fill-opacity="1" fill-rule="nonzero"/><path fill="#0a2d3f" d="M 3.363281 24.367188 L 0.328125 27.871094 C 0 28.246094 0.046875 28.804688 0.375 29.132812 C 6.777344 35.675781 17.851562 39.554688 30 39.554688 C 42.148438 39.554688 53.222656 35.675781 59.625 29.132812 C 59.953125 28.804688 60 28.292969 59.71875 27.917969 L 56.683594 23.945312 L 59.859375 15.113281 C 60 14.691406 59.859375 14.226562 59.484375 13.992188 C 59.113281 13.757812 58.644531 13.804688 58.316406 14.132812 C 50.746094 21.796875 40.699219 26.046875 30 26.046875 C 19.300781 26.046875 9.253906 21.796875 1.683594 14.132812 C 1.355469 13.804688 0.886719 13.757812 0.515625 13.992188 C 0.140625 14.226562 0 14.691406 0.140625 15.113281 Z M 30 27.917969 C 39.90625 27.917969 49.253906 24.460938 56.777344 18.105469 L 54.71875 23.804688 C 54.625 24.085938 54.671875 24.460938 54.859375 24.691406 L 57.710938 28.382812 C 51.542969 34.226562 41.261719 37.683594 30 37.683594 C 18.738281 37.683594 8.457031 34.226562 2.289062 28.429688 L 5.09375 25.207031 C 5.328125 24.972656 5.375 24.601562 5.28125 24.273438 L 3.128906 18.011719 C 10.652344 24.414062 20.046875 27.917969 30 27.917969 Z M 30 27.917969 " fill-opacity="1" fill-rule="nonzero"/><path fill="#0a2d3f" d="M 17.523438 31.046875 C 17.757812 31.046875 17.992188 30.953125 18.175781 30.769531 L 18.457031 30.488281 L 18.457031 33.851562 L 17.992188 33.851562 C 17.476562 33.851562 17.054688 34.273438 17.054688 34.785156 C 17.054688 35.300781 17.476562 35.722656 17.992188 35.722656 L 20.792969 35.722656 C 21.308594 35.722656 21.730469 35.300781 21.730469 34.785156 C 21.730469 34.273438 21.308594 33.851562 20.792969 33.851562 L 20.328125 33.851562 L 20.328125 28.246094 C 20.328125 28.199219 20.328125 28.105469 20.328125 28.058594 C 20.328125 28.011719 20.328125 28.011719 20.28125 27.964844 C 20.28125 27.917969 20.28125 27.917969 20.234375 27.871094 C 20.234375 27.824219 20.1875 27.824219 20.1875 27.777344 C 20.1875 27.730469 20.140625 27.730469 20.140625 27.683594 C 20.09375 27.589844 20 27.496094 19.859375 27.402344 C 19.859375 27.402344 19.8125 27.355469 19.8125 27.355469 C 19.765625 27.355469 19.765625 27.308594 19.71875 27.308594 C 19.671875 27.308594 19.671875 27.308594 19.625 27.261719 C 19.578125 27.261719 19.578125 27.261719 19.53125 27.214844 C 19.390625 27.167969 19.300781 27.167969 19.160156 27.214844 C 19.113281 27.214844 19.113281 27.214844 19.066406 27.261719 C 19.019531 27.261719 19.019531 27.261719 18.972656 27.308594 C 18.925781 27.308594 18.925781 27.355469 18.878906 27.355469 C 18.878906 27.355469 18.832031 27.355469 18.832031 27.402344 C 18.785156 27.449219 18.738281 27.496094 18.691406 27.542969 L 16.824219 29.414062 C 16.449219 29.785156 16.449219 30.347656 16.824219 30.722656 C 17.054688 30.953125 17.289062 31.046875 17.523438 31.046875 Z M 17.523438 31.046875 " fill-opacity="1" fill-rule="nonzero"/><path fill="#0a2d3f" d="M 25.46875 36.65625 C 27.007812 36.65625 28.269531 35.394531 28.269531 33.851562 L 28.269531 31.046875 C 28.269531 29.507812 27.007812 28.246094 25.46875 28.246094 C 23.925781 28.246094 22.664062 29.507812 22.664062 31.046875 L 22.664062 33.851562 C 22.664062 35.394531 23.925781 36.65625 25.46875 36.65625 Z M 24.53125 31.046875 C 24.53125 30.535156 24.953125 30.113281 25.46875 30.113281 C 25.980469 30.113281 26.402344 30.535156 26.402344 31.046875 L 26.402344 33.851562 C 26.402344 34.367188 25.980469 34.785156 25.46875 34.785156 C 24.953125 34.785156 24.53125 34.367188 24.53125 33.851562 Z M 24.53125 31.046875 " fill-opacity="1" fill-rule="nonzero"/><path fill="#0a2d3f" d="M 32.054688 36.65625 C 33.597656 36.65625 34.859375 35.394531 34.859375 33.851562 L 34.859375 31.046875 C 34.859375 29.507812 33.597656 28.246094 32.054688 28.246094 C 30.515625 28.246094 29.253906 29.507812 29.253906 31.046875 L 29.253906 33.851562 C 29.253906 35.394531 30.515625 36.65625 32.054688 36.65625 Z M 31.121094 31.046875 C 31.121094 30.535156 31.542969 30.113281 32.054688 30.113281 C 32.570312 30.113281 32.992188 30.535156 32.992188 31.046875 L 32.992188 33.851562 C 32.992188 34.367188 32.570312 34.785156 32.054688 34.785156 C 31.542969 34.785156 31.121094 34.367188 31.121094 33.851562 Z M 31.121094 31.046875 " fill-opacity="1" fill-rule="nonzero"/><path fill="#0a2d3f" d="M 38.738281 36.28125 C 38.832031 36.328125 38.972656 36.328125 39.066406 36.328125 C 39.4375 36.328125 39.765625 36.09375 39.953125 35.722656 L 42.804688 28.570312 C 42.992188 28.105469 42.757812 27.542969 42.289062 27.355469 C 41.824219 27.167969 41.261719 27.402344 41.074219 27.871094 L 38.222656 35.019531 C 37.992188 35.582031 38.222656 36.09375 38.738281 36.28125 Z M 38.738281 36.28125 " fill-opacity="1" fill-rule="nonzero"/><path fill="#0a2d3f" d="M 39.484375 29.644531 C 39.484375 29.832031 39.449219 30.011719 39.378906 30.183594 C 39.308594 30.355469 39.207031 30.507812 39.074219 30.636719 C 38.945312 30.769531 38.792969 30.871094 38.621094 30.941406 C 38.449219 31.011719 38.269531 31.046875 38.085938 31.046875 C 37.898438 31.046875 37.71875 31.011719 37.546875 30.941406 C 37.375 30.871094 37.222656 30.769531 37.09375 30.636719 C 36.960938 30.507812 36.859375 30.355469 36.789062 30.183594 C 36.71875 30.011719 36.683594 29.832031 36.683594 29.644531 C 36.683594 29.460938 36.71875 29.28125 36.789062 29.109375 C 36.859375 28.9375 36.960938 28.785156 37.09375 28.65625 C 37.222656 28.523438 37.375 28.421875 37.546875 28.351562 C 37.71875 28.28125 37.898438 28.246094 38.085938 28.246094 C 38.269531 28.246094 38.449219 28.28125 38.621094 28.351562 C 38.792969 28.421875 38.945312 28.523438 39.074219 28.65625 C 39.207031 28.785156 39.308594 28.9375 39.378906 29.109375 C 39.449219 29.28125 39.484375 29.460938 39.484375 29.644531 Z M 39.484375 29.644531 " fill-opacity="1" fill-rule="nonzero"/><path fill="#0a2d3f" d="M 44.347656 34.039062 C 44.347656 34.226562 44.308594 34.402344 44.238281 34.574219 C 44.167969 34.746094 44.066406 34.898438 43.933594 35.03125 C 43.804688 35.160156 43.652344 35.261719 43.480469 35.335938 C 43.308594 35.40625 43.128906 35.441406 42.945312 35.441406 C 42.757812 35.441406 42.578125 35.40625 42.40625 35.335938 C 42.234375 35.261719 42.085938 35.160156 41.953125 35.03125 C 41.820312 34.898438 41.71875 34.746094 41.648438 34.574219 C 41.578125 34.402344 41.542969 34.226562 41.542969 34.039062 C 41.542969 33.851562 41.578125 33.675781 41.648438 33.503906 C 41.71875 33.332031 41.820312 33.179688 41.953125 33.046875 C 42.085938 32.917969 42.234375 32.816406 42.40625 32.742188 C 42.578125 32.671875 42.757812 32.636719 42.945312 32.636719 C 43.128906 32.636719 43.308594 32.671875 43.480469 32.742188 C 43.652344 32.816406 43.804688 32.917969 43.933594 33.046875 C 44.066406 33.179688 44.167969 33.332031 44.238281 33.503906 C 44.308594 33.675781 44.347656 33.851562 44.347656 34.039062 Z M 44.347656 34.039062 " fill-opacity="1" fill-rule="nonzero"/><path fill="#0a2d3f" d="M 29.113281 46.140625 L 30.234375 48.011719 L 31.027344 46.09375 L 33.128906 45.722656 L 31.496094 44.273438 L 31.683594 42.167969 L 29.8125 43.246094 L 27.851562 42.308594 L 28.363281 44.367188 L 26.960938 45.90625 Z M 29.113281 46.140625 " fill-opacity="1" fill-rule="nonzero"/><path fill="#0a2d3f" d="M 36.960938 43.757812 L 37.710938 45.019531 L 38.269531 43.710938 L 39.671875 43.476562 L 38.550781 42.496094 L 38.691406 41.09375 L 37.429688 41.796875 L 36.074219 41.1875 L 36.449219 42.589844 L 35.515625 43.617188 Z M 36.960938 43.757812 " fill-opacity="1" fill-rule="nonzero"/><path fill="#0a2d3f" d="M 21.777344 43.757812 L 22.523438 45.019531 L 23.085938 43.710938 L 24.484375 43.476562 L 23.363281 42.496094 L 23.503906 41.09375 L 22.242188 41.796875 L 20.886719 41.1875 L 21.261719 42.589844 L 20.328125 43.617188 Z M 21.777344 43.757812 " fill-opacity="1" fill-rule="nonzero"/></svg>