<svg xmlns="http://www.w3.org/2000/svg" xmlns:xlink="http://www.w3.org/1999/xlink" width="80" zoomAndPan="magnify" viewBox="0 0 60 60" height="80" preserveAspectRatio="xMidYMid meet" version="1.0"><defs><clipPath id="61ead9d4fa"><path d="M 5 6 L 60 6 L 60 34 L 5 34 Z M 5 6 " clip-rule="nonzero"/></clipPath></defs><g clip-path="url(#61ead9d4fa)"><path fill="#0a2d3f" d="M 47.644531 5.953125 C 46.980469 5.953125 46.320312 6.019531 45.667969 6.148438 C 45.015625 6.277344 44.378906 6.46875 43.765625 6.722656 C 43.148438 6.976562 42.5625 7.289062 42.011719 7.660156 C 41.457031 8.027344 40.941406 8.449219 40.472656 8.917969 C 40 9.390625 39.578125 9.902344 39.207031 10.453125 C 38.835938 11.007812 38.523438 11.59375 38.269531 12.207031 C 38.011719 12.820312 37.820312 13.457031 37.6875 14.109375 C 37.554688 14.761719 37.488281 15.421875 37.488281 16.085938 C 37.488281 16.636719 37.542969 17.179688 37.652344 17.714844 C 37.761719 18.253906 37.921875 18.777344 38.132812 19.28125 C 38.339844 19.789062 38.597656 20.269531 38.90625 20.726562 C 39.210938 21.183594 39.554688 21.605469 39.945312 21.992188 C 40.332031 22.378906 40.753906 22.726562 41.210938 23.03125 C 41.667969 23.335938 42.148438 23.59375 42.652344 23.804688 C 43.160156 24.015625 43.683594 24.175781 44.21875 24.285156 C 44.757812 24.390625 45.300781 24.449219 45.851562 24.449219 C 46.304688 24.449219 46.753906 24.40625 47.199219 24.316406 C 47.644531 24.226562 48.078125 24.097656 48.5 23.921875 C 48.917969 23.75 49.316406 23.535156 49.695312 23.28125 C 50.074219 23.03125 50.421875 22.742188 50.746094 22.421875 C 51.066406 22.101562 51.351562 21.75 51.605469 21.371094 C 51.859375 20.996094 52.070312 20.597656 52.246094 20.175781 C 52.417969 19.757812 52.550781 19.324219 52.636719 18.878906 C 52.726562 18.433594 52.773438 17.980469 52.773438 17.527344 C 52.773438 17.148438 52.734375 16.773438 52.660156 16.402344 C 52.585938 16.03125 52.476562 15.671875 52.332031 15.320312 C 52.1875 14.972656 52.011719 14.640625 51.800781 14.324219 C 51.589844 14.011719 51.351562 13.71875 51.082031 13.453125 C 50.816406 13.183594 50.523438 12.945312 50.210938 12.734375 C 49.894531 12.523438 49.5625 12.347656 49.214844 12.203125 C 48.863281 12.058594 48.503906 11.949219 48.132812 11.875 C 47.761719 11.800781 47.386719 11.765625 47.007812 11.765625 C 46.6875 11.761719 46.371094 11.792969 46.058594 11.851562 C 45.746094 11.914062 45.441406 12.003906 45.148438 12.125 C 44.851562 12.246094 44.570312 12.394531 44.304688 12.570312 C 44.039062 12.746094 43.792969 12.949219 43.570312 13.171875 C 43.34375 13.398438 43.140625 13.644531 42.960938 13.910156 C 42.785156 14.171875 42.636719 14.453125 42.511719 14.746094 C 42.390625 15.042969 42.296875 15.347656 42.234375 15.660156 C 42.171875 15.972656 42.140625 16.289062 42.140625 16.605469 C 42.140625 16.878906 42.167969 17.148438 42.222656 17.414062 C 42.273438 17.679688 42.351562 17.9375 42.457031 18.1875 C 42.558594 18.4375 42.6875 18.675781 42.839844 18.902344 C 42.988281 19.128906 43.160156 19.335938 43.351562 19.53125 C 43.542969 19.722656 43.753906 19.894531 43.980469 20.042969 C 44.203125 20.195312 44.441406 20.320312 44.695312 20.425781 C 44.945312 20.53125 45.203125 20.609375 45.46875 20.660156 C 45.734375 20.714844 46.003906 20.738281 46.277344 20.738281 C 46.429688 20.738281 46.582031 20.707031 46.722656 20.644531 C 46.867188 20.582031 46.992188 20.496094 47.105469 20.386719 C 47.214844 20.277344 47.300781 20.152344 47.359375 20.007812 C 47.421875 19.863281 47.453125 19.714844 47.457031 19.558594 C 47.457031 19.402344 47.425781 19.25 47.367188 19.105469 C 47.308594 18.960938 47.222656 18.835938 47.109375 18.722656 C 47 18.613281 46.871094 18.527344 46.726562 18.46875 C 46.582031 18.40625 46.433594 18.378906 46.277344 18.378906 C 46.042969 18.375 45.816406 18.328125 45.601562 18.238281 C 45.386719 18.144531 45.195312 18.019531 45.03125 17.851562 C 44.863281 17.6875 44.734375 17.496094 44.644531 17.28125 C 44.554688 17.066406 44.507812 16.839844 44.503906 16.605469 C 44.507812 16.277344 44.574219 15.960938 44.703125 15.65625 C 44.828125 15.351562 45.011719 15.082031 45.246094 14.851562 C 45.480469 14.617188 45.75 14.441406 46.054688 14.3125 C 46.359375 14.1875 46.679688 14.125 47.007812 14.125 C 47.457031 14.128906 47.890625 14.21875 48.304688 14.390625 C 48.722656 14.566406 49.089844 14.8125 49.40625 15.128906 C 49.722656 15.449219 49.96875 15.8125 50.144531 16.230469 C 50.316406 16.644531 50.40625 17.078125 50.410156 17.527344 C 50.40625 17.828125 50.378906 18.121094 50.316406 18.414062 C 50.257812 18.707031 50.171875 18.992188 50.054688 19.269531 C 49.941406 19.542969 49.800781 19.804688 49.632812 20.054688 C 49.46875 20.304688 49.277344 20.53125 49.066406 20.746094 C 48.855469 20.957031 48.625 21.144531 48.378906 21.3125 C 48.128906 21.476562 47.867188 21.617188 47.589844 21.734375 C 47.316406 21.847656 47.03125 21.9375 46.738281 21.996094 C 46.445312 22.054688 46.148438 22.085938 45.851562 22.085938 C 45.457031 22.085938 45.066406 22.046875 44.679688 21.972656 C 44.292969 21.894531 43.917969 21.78125 43.554688 21.628906 C 43.191406 21.480469 42.84375 21.292969 42.515625 21.074219 C 42.1875 20.855469 41.886719 20.609375 41.609375 20.328125 C 41.328125 20.050781 41.082031 19.746094 40.863281 19.421875 C 40.644531 19.09375 40.457031 18.746094 40.308594 18.382812 C 40.15625 18.019531 40.042969 17.644531 39.964844 17.257812 C 39.890625 16.871094 39.851562 16.480469 39.851562 16.085938 C 39.851562 15.574219 39.902344 15.070312 40.003906 14.570312 C 40.105469 14.070312 40.253906 13.582031 40.449219 13.109375 C 40.648438 12.640625 40.886719 12.191406 41.171875 11.765625 C 41.457031 11.34375 41.78125 10.949219 42.140625 10.589844 C 42.503906 10.230469 42.898438 9.90625 43.320312 9.625 C 43.746094 9.339844 44.195312 9.101562 44.667969 8.90625 C 45.140625 8.710938 45.625 8.5625 46.128906 8.464844 C 46.628906 8.363281 47.136719 8.316406 47.644531 8.316406 C 48.304688 8.316406 48.953125 8.378906 49.601562 8.507812 C 50.246094 8.636719 50.871094 8.824219 51.480469 9.078125 C 52.085938 9.328125 52.664062 9.636719 53.210938 10.003906 C 53.757812 10.367188 54.261719 10.785156 54.726562 11.25 C 55.191406 11.714844 55.609375 12.21875 55.972656 12.765625 C 56.339844 13.3125 56.648438 13.890625 56.898438 14.496094 C 57.152344 15.105469 57.339844 15.730469 57.46875 16.375 C 57.597656 17.023438 57.660156 17.671875 57.660156 18.332031 C 57.660156 19.171875 57.578125 20.007812 57.414062 20.832031 C 57.25 21.660156 57.007812 22.460938 56.683594 23.238281 C 56.363281 24.015625 55.96875 24.757812 55.5 25.457031 C 55.03125 26.15625 54.5 26.804688 53.90625 27.402344 C 53.308594 27.996094 52.660156 28.527344 51.960938 28.996094 C 51.261719 29.464844 50.519531 29.859375 49.742188 30.179688 C 48.964844 30.503906 48.164062 30.746094 47.335938 30.910156 C 46.511719 31.074219 45.675781 31.15625 44.835938 31.15625 L 6.496094 31.15625 C 6.339844 31.160156 6.191406 31.191406 6.046875 31.253906 C 5.90625 31.316406 5.777344 31.398438 5.667969 31.511719 C 5.558594 31.621094 5.472656 31.746094 5.410156 31.890625 C 5.351562 32.035156 5.316406 32.183594 5.316406 32.339844 C 5.316406 32.496094 5.34375 32.644531 5.40625 32.789062 C 5.464844 32.933594 5.550781 33.0625 5.660156 33.171875 C 5.773438 33.285156 5.898438 33.371094 6.042969 33.429688 C 6.1875 33.488281 6.339844 33.519531 6.496094 33.519531 L 44.835938 33.519531 C 45.832031 33.519531 46.820312 33.421875 47.796875 33.226562 C 48.777344 33.035156 49.726562 32.746094 50.648438 32.363281 C 51.570312 31.980469 52.445312 31.515625 53.273438 30.960938 C 54.101562 30.40625 54.871094 29.777344 55.574219 29.070312 C 56.28125 28.367188 56.910156 27.597656 57.464844 26.769531 C 58.019531 25.941406 58.484375 25.066406 58.867188 24.144531 C 59.25 23.222656 59.539062 22.273438 59.730469 21.292969 C 59.925781 20.316406 60.023438 19.328125 60.023438 18.332031 C 60.023438 17.519531 59.941406 16.714844 59.78125 15.917969 C 59.621094 15.121094 59.386719 14.347656 59.074219 13.597656 C 58.761719 12.847656 58.382812 12.132812 57.929688 11.460938 C 57.480469 10.785156 56.964844 10.160156 56.390625 9.585938 C 55.816406 9.011719 55.191406 8.496094 54.515625 8.046875 C 53.839844 7.59375 53.128906 7.210938 52.378906 6.902344 C 51.628906 6.589844 50.855469 6.355469 50.058594 6.195312 C 49.261719 6.035156 48.457031 5.953125 47.644531 5.953125 Z M 47.644531 5.953125 " fill-opacity="1" fill-rule="nonzero"/></g><path fill="#0a2d3f" d="M 36.589844 35.054688 L 11.667969 35.054688 C 11.511719 35.058594 11.363281 35.089844 11.222656 35.152344 C 11.078125 35.210938 10.949219 35.296875 10.839844 35.40625 C 10.730469 35.519531 10.644531 35.644531 10.585938 35.789062 C 10.523438 35.929688 10.492188 36.082031 10.488281 36.234375 C 10.488281 36.394531 10.519531 36.542969 10.578125 36.6875 C 10.636719 36.832031 10.722656 36.960938 10.835938 37.070312 C 10.945312 37.183594 11.074219 37.265625 11.21875 37.328125 C 11.363281 37.386719 11.511719 37.417969 11.667969 37.417969 L 36.589844 37.417969 C 37.109375 37.417969 37.625 37.472656 38.136719 37.574219 C 38.648438 37.675781 39.144531 37.828125 39.625 38.027344 C 40.105469 38.226562 40.5625 38.472656 40.996094 38.761719 C 41.425781 39.050781 41.828125 39.378906 42.195312 39.75 C 42.5625 40.117188 42.894531 40.519531 43.183594 40.949219 C 43.472656 41.382812 43.71875 41.839844 43.917969 42.320312 C 44.117188 42.800781 44.269531 43.296875 44.371094 43.808594 C 44.472656 44.316406 44.527344 44.832031 44.527344 45.355469 C 44.527344 45.753906 44.484375 46.152344 44.40625 46.542969 C 44.328125 46.9375 44.210938 47.320312 44.054688 47.6875 C 43.902344 48.058594 43.710938 48.410156 43.488281 48.742188 C 43.265625 49.074219 43.011719 49.382812 42.726562 49.664062 C 42.445312 49.949219 42.132812 50.199219 41.800781 50.421875 C 41.46875 50.644531 41.117188 50.832031 40.746094 50.984375 C 40.375 51.136719 39.992188 51.253906 39.601562 51.332031 C 39.207031 51.410156 38.808594 51.449219 38.410156 51.449219 C 38.097656 51.449219 37.792969 51.417969 37.488281 51.359375 C 37.183594 51.296875 36.886719 51.207031 36.601562 51.089844 C 36.316406 50.96875 36.042969 50.824219 35.785156 50.652344 C 35.527344 50.480469 35.289062 50.285156 35.070312 50.066406 C 34.847656 49.847656 34.652344 49.605469 34.480469 49.347656 C 34.308594 49.089844 34.164062 48.820312 34.042969 48.53125 C 33.925781 48.246094 33.835938 47.949219 33.777344 47.644531 C 33.714844 47.34375 33.683594 47.035156 33.683594 46.722656 C 33.6875 46.261719 33.777344 45.820312 33.957031 45.394531 C 34.136719 44.96875 34.390625 44.59375 34.71875 44.265625 C 35.042969 43.941406 35.421875 43.691406 35.847656 43.515625 C 36.273438 43.339844 36.71875 43.253906 37.179688 43.253906 L 37.441406 43.253906 C 37.03125 43.261719 36.636719 43.347656 36.261719 43.515625 C 35.886719 43.679688 35.558594 43.910156 35.273438 44.207031 C 34.988281 44.503906 34.773438 44.84375 34.625 45.226562 C 34.476562 45.609375 34.40625 46.007812 34.417969 46.417969 C 34.417969 46.890625 34.507812 47.34375 34.6875 47.78125 C 34.871094 48.21875 35.128906 48.605469 35.460938 48.941406 C 35.796875 49.273438 36.183594 49.53125 36.621094 49.710938 C 37.054688 49.894531 37.511719 49.984375 37.984375 49.984375 C 38.257812 49.984375 38.53125 49.960938 38.796875 49.910156 C 39.066406 49.855469 39.328125 49.777344 39.582031 49.675781 C 39.835938 49.570312 40.078125 49.441406 40.304688 49.292969 C 40.535156 49.140625 40.746094 48.96875 40.9375 48.773438 C 41.132812 48.582031 41.308594 48.371094 41.460938 48.144531 C 41.613281 47.917969 41.742188 47.675781 41.847656 47.421875 C 41.953125 47.171875 42.03125 46.910156 42.085938 46.640625 C 42.136719 46.371094 42.164062 46.101562 42.164062 45.828125 C 42.164062 45.503906 42.132812 45.183594 42.070312 44.867188 C 42.007812 44.550781 41.914062 44.246094 41.792969 43.945312 C 41.667969 43.648438 41.515625 43.367188 41.335938 43.097656 C 41.15625 42.828125 40.953125 42.582031 40.726562 42.351562 C 40.5 42.125 40.25 41.921875 39.980469 41.742188 C 39.714844 41.5625 39.429688 41.410156 39.132812 41.289062 C 38.835938 41.164062 38.527344 41.070312 38.210938 41.007812 C 37.894531 40.945312 37.574219 40.914062 37.253906 40.914062 C 36.867188 40.914062 36.488281 40.949219 36.113281 41.023438 C 35.734375 41.101562 35.371094 41.210938 35.015625 41.355469 C 34.660156 41.503906 34.324219 41.683594 34.003906 41.894531 C 33.683594 42.109375 33.390625 42.351562 33.117188 42.621094 C 32.847656 42.890625 32.601562 43.1875 32.390625 43.503906 C 32.175781 43.824219 31.996094 44.160156 31.847656 44.511719 C 31.699219 44.867188 31.585938 45.234375 31.511719 45.609375 C 31.433594 45.984375 31.394531 46.363281 31.394531 46.746094 C 31.394531 47.214844 31.4375 47.675781 31.53125 48.128906 C 31.621094 48.585938 31.753906 49.03125 31.933594 49.460938 C 32.109375 49.890625 32.328125 50.296875 32.589844 50.683594 C 32.847656 51.070312 33.140625 51.429688 33.46875 51.757812 C 33.796875 52.089844 34.15625 52.382812 34.542969 52.640625 C 34.929688 52.898438 35.339844 53.117188 35.769531 53.296875 C 36.199219 53.472656 36.640625 53.609375 37.097656 53.699219 C 37.554688 53.789062 38.015625 53.835938 38.480469 53.835938 C 39.035156 53.835938 39.585938 53.78125 40.132812 53.671875 C 40.675781 53.5625 41.207031 53.402344 41.71875 53.191406 C 42.234375 52.980469 42.722656 52.71875 43.183594 52.410156 C 43.648438 52.101562 44.074219 51.75 44.46875 51.359375 C 44.863281 50.964844 45.214844 50.539062 45.523438 50.078125 C 45.832031 49.617188 46.09375 49.128906 46.308594 48.617188 C 46.523438 48.101562 46.683594 47.574219 46.792969 47.027344 C 46.902344 46.484375 46.960938 45.933594 46.960938 45.378906 C 46.960938 44.699219 46.894531 44.023438 46.761719 43.359375 C 46.628906 42.691406 46.429688 42.042969 46.171875 41.417969 C 45.910156 40.789062 45.589844 40.191406 45.210938 39.628906 C 44.832031 39.0625 44.402344 38.542969 43.921875 38.0625 C 43.4375 37.582031 42.914062 37.15625 42.347656 36.777344 C 41.78125 36.402344 41.183594 36.085938 40.554688 35.828125 C 39.925781 35.570312 39.277344 35.375 38.609375 35.246094 C 37.945312 35.117188 37.269531 35.050781 36.589844 35.054688 Z M 39.804688 45.875 C 39.800781 46.113281 39.75 46.34375 39.65625 46.5625 C 39.5625 46.78125 39.433594 46.976562 39.261719 47.144531 C 39.09375 47.3125 38.894531 47.441406 38.675781 47.53125 C 38.453125 47.625 38.222656 47.667969 37.984375 47.667969 C 37.824219 47.667969 37.671875 47.640625 37.523438 47.578125 C 37.375 47.515625 37.246094 47.429688 37.132812 47.316406 C 37.019531 47.203125 36.933594 47.074219 36.871094 46.925781 C 36.808594 46.777344 36.78125 46.625 36.78125 46.464844 C 36.78125 46.261719 36.851562 46.089844 36.992188 45.945312 C 37.136719 45.804688 37.308594 45.730469 37.511719 45.730469 C 37.667969 45.730469 37.820312 45.703125 37.964844 45.640625 C 38.109375 45.582031 38.234375 45.496094 38.347656 45.386719 C 38.457031 45.277344 38.542969 45.148438 38.601562 45.003906 C 38.664062 44.859375 38.691406 44.707031 38.691406 44.550781 C 38.691406 44.316406 38.625 44.101562 38.496094 43.90625 C 38.367188 43.707031 38.199219 43.5625 37.984375 43.464844 C 38.246094 43.539062 38.488281 43.65625 38.710938 43.8125 C 38.933594 43.964844 39.128906 44.152344 39.292969 44.367188 C 39.457031 44.585938 39.582031 44.820312 39.667969 45.078125 C 39.757812 45.335938 39.800781 45.601562 39.804688 45.875 Z M 39.804688 45.875 " fill-opacity="1" fill-rule="nonzero"/><path fill="#0a2d3f" d="M 36.355469 19.300781 C 36.355469 18.742188 36.300781 18.191406 36.191406 17.648438 C 36.082031 17.101562 35.921875 16.570312 35.707031 16.058594 C 35.496094 15.542969 35.234375 15.054688 34.925781 14.59375 C 34.613281 14.132812 34.261719 13.703125 33.867188 13.3125 C 33.476562 12.917969 33.046875 12.566406 32.582031 12.257812 C 32.121094 11.953125 31.632812 11.691406 31.117188 11.480469 C 30.601562 11.269531 30.074219 11.109375 29.527344 11 C 28.980469 10.894531 28.429688 10.839844 27.875 10.84375 C 27.410156 10.84375 26.949219 10.886719 26.492188 10.980469 C 26.035156 11.070312 25.59375 11.203125 25.160156 11.382812 C 24.730469 11.558594 24.324219 11.777344 23.9375 12.035156 C 23.550781 12.296875 23.191406 12.589844 22.863281 12.917969 C 22.535156 13.246094 22.238281 13.605469 21.980469 13.992188 C 21.722656 14.378906 21.503906 14.789062 21.328125 15.21875 C 21.148438 15.648438 21.015625 16.089844 20.921875 16.546875 C 20.832031 17.003906 20.789062 17.464844 20.789062 17.929688 C 20.789062 18.3125 20.824219 18.691406 20.898438 19.070312 C 20.972656 19.445312 21.085938 19.8125 21.230469 20.164062 C 21.378906 20.519531 21.558594 20.855469 21.769531 21.175781 C 21.984375 21.496094 22.222656 21.792969 22.496094 22.0625 C 22.765625 22.335938 23.058594 22.578125 23.378906 22.792969 C 23.695312 23.007812 24.035156 23.1875 24.386719 23.335938 C 24.742188 23.484375 25.105469 23.59375 25.484375 23.671875 C 25.859375 23.746094 26.238281 23.785156 26.621094 23.789062 C 26.945312 23.789062 27.265625 23.757812 27.582031 23.691406 C 27.898438 23.628906 28.203125 23.535156 28.503906 23.414062 C 28.800781 23.289062 29.082031 23.136719 29.351562 22.960938 C 29.621094 22.78125 29.867188 22.578125 30.097656 22.347656 C 30.324219 22.121094 30.527344 21.871094 30.707031 21.605469 C 30.886719 21.335938 31.039062 21.050781 31.160156 20.753906 C 31.285156 20.457031 31.378906 20.148438 31.441406 19.832031 C 31.503906 19.515625 31.535156 19.195312 31.535156 18.875 C 31.535156 18.601562 31.507812 18.332031 31.457031 18.0625 C 31.402344 17.796875 31.324219 17.535156 31.21875 17.28125 C 31.113281 17.03125 30.988281 16.792969 30.835938 16.5625 C 30.683594 16.335938 30.511719 16.128906 30.316406 15.933594 C 30.125 15.742188 29.914062 15.570312 29.6875 15.417969 C 29.460938 15.265625 29.222656 15.136719 28.96875 15.03125 C 28.714844 14.929688 28.457031 14.851562 28.1875 14.796875 C 27.921875 14.742188 27.652344 14.714844 27.378906 14.714844 C 26.902344 14.714844 26.449219 14.800781 26.007812 14.980469 C 25.570312 15.160156 25.183594 15.417969 24.847656 15.753906 C 24.511719 16.089844 24.257812 16.476562 24.074219 16.914062 C 23.894531 17.351562 23.808594 17.808594 23.8125 18.285156 C 23.8125 18.691406 23.890625 19.082031 24.042969 19.457031 C 24.199219 19.835938 24.421875 20.167969 24.710938 20.453125 C 25 20.742188 25.332031 20.964844 25.707031 21.121094 C 26.082031 21.277344 26.476562 21.355469 26.882812 21.355469 C 26.773438 21.367188 26.660156 21.367188 26.550781 21.355469 C 26.089844 21.355469 25.644531 21.265625 25.21875 21.085938 C 24.789062 20.910156 24.414062 20.65625 24.085938 20.328125 C 23.761719 20 23.511719 19.621094 23.335938 19.195312 C 23.160156 18.765625 23.074219 18.320312 23.078125 17.859375 C 23.078125 17.546875 23.109375 17.242188 23.167969 16.9375 C 23.230469 16.632812 23.320312 16.335938 23.4375 16.050781 C 23.558594 15.765625 23.703125 15.492188 23.875 15.234375 C 24.046875 14.976562 24.242188 14.738281 24.460938 14.519531 C 24.683594 14.296875 24.921875 14.101562 25.179688 13.929688 C 25.4375 13.757812 25.707031 13.613281 25.996094 13.492188 C 26.28125 13.375 26.578125 13.285156 26.882812 13.226562 C 27.1875 13.164062 27.492188 13.132812 27.804688 13.132812 C 28.203125 13.132812 28.601562 13.171875 28.992188 13.25 C 29.386719 13.328125 29.769531 13.445312 30.140625 13.597656 C 30.507812 13.75 30.863281 13.9375 31.195312 14.160156 C 31.527344 14.382812 31.835938 14.632812 32.121094 14.917969 C 32.40625 15.199219 32.660156 15.507812 32.882812 15.839844 C 33.105469 16.171875 33.292969 16.523438 33.449219 16.894531 C 33.601562 17.265625 33.71875 17.644531 33.800781 18.039062 C 33.878906 18.429688 33.917969 18.828125 33.921875 19.226562 C 33.917969 19.75 33.867188 20.261719 33.765625 20.773438 C 33.660156 21.285156 33.511719 21.777344 33.308594 22.257812 C 33.109375 22.738281 32.867188 23.195312 32.574219 23.625 C 32.285156 24.058594 31.957031 24.457031 31.589844 24.824219 C 31.21875 25.191406 30.820312 25.519531 30.386719 25.808594 C 29.953125 26.097656 29.496094 26.339844 29.015625 26.539062 C 28.535156 26.738281 28.039062 26.886719 27.53125 26.988281 C 27.019531 27.089844 26.503906 27.140625 25.984375 27.140625 L 1.15625 27.140625 C 1 27.140625 0.851562 27.171875 0.707031 27.230469 C 0.5625 27.292969 0.433594 27.375 0.324219 27.488281 C 0.210938 27.597656 0.125 27.726562 0.0664062 27.871094 C 0.0078125 28.015625 -0.0234375 28.167969 -0.0234375 28.324219 C -0.0234375 28.480469 0.0078125 28.628906 0.0664062 28.773438 C 0.125 28.917969 0.210938 29.046875 0.324219 29.15625 C 0.433594 29.269531 0.5625 29.355469 0.707031 29.414062 C 0.851562 29.472656 1 29.503906 1.15625 29.503906 L 26.054688 29.503906 C 26.726562 29.503906 27.394531 29.4375 28.054688 29.308594 C 28.710938 29.179688 29.351562 28.984375 29.976562 28.730469 C 30.597656 28.472656 31.1875 28.160156 31.746094 27.789062 C 32.308594 27.417969 32.828125 26.992188 33.304688 26.519531 C 33.78125 26.046875 34.210938 25.53125 34.585938 24.976562 C 34.960938 24.417969 35.28125 23.832031 35.542969 23.210938 C 35.804688 22.59375 36.003906 21.953125 36.140625 21.296875 C 36.277344 20.636719 36.347656 19.972656 36.355469 19.300781 Z M 26.90625 18.898438 C 26.707031 18.90625 26.539062 18.835938 26.398438 18.699219 C 26.257812 18.558594 26.191406 18.386719 26.195312 18.1875 C 26.195312 18.027344 26.226562 17.875 26.289062 17.726562 C 26.351562 17.582031 26.4375 17.449219 26.550781 17.335938 C 26.664062 17.222656 26.792969 17.136719 26.941406 17.074219 C 27.089844 17.015625 27.242188 16.984375 27.402344 16.984375 C 27.640625 16.984375 27.867188 17.03125 28.089844 17.121094 C 28.308594 17.210938 28.503906 17.339844 28.671875 17.511719 C 28.839844 17.679688 28.96875 17.871094 29.058594 18.09375 C 29.152344 18.3125 29.195312 18.542969 29.195312 18.78125 C 29.191406 19.046875 29.144531 19.308594 29.054688 19.5625 C 28.96875 19.816406 28.839844 20.046875 28.675781 20.261719 C 28.511719 20.472656 28.320312 20.65625 28.097656 20.804688 C 27.875 20.957031 27.636719 21.066406 27.378906 21.140625 C 27.597656 21.054688 27.773438 20.910156 27.902344 20.710938 C 28.03125 20.511719 28.09375 20.292969 28.085938 20.054688 C 28.082031 19.746094 27.972656 19.480469 27.757812 19.257812 C 27.542969 19.035156 27.285156 18.917969 26.976562 18.898438 Z M 26.90625 18.898438 " fill-opacity="1" fill-rule="nonzero"/></svg>